<?xml version="1.0" encoding="UTF-8"?>
<svg version="1.1" xmlns="http://www.w3.org/2000/svg" width="74" height="74">
<path d="M0 0 C0.78938965 0.00757324 1.5787793 0.01514648 2.39208984 0.02294922 C8.62683275 0.1986661 13.70552302 1.20801651 19.125 4.4375 C19.82753906 4.85 20.53007813 5.2625 21.25390625 5.6875 C29.18657038 10.98597775 34.63266467 19.28337946 37.125 28.4375 C37.53608093 31.41054983 37.60297546 34.31410362 37.5625 37.3125 C37.55492676 38.10188965 37.54735352 38.8912793 37.53955078 39.70458984 C37.3638339 45.93933275 36.35448349 51.01802302 33.125 56.4375 C32.7125 57.14003906 32.3 57.84257813 31.875 58.56640625 C26.57652225 66.49907038 18.27912054 71.94516467 9.125 74.4375 C6.15195017 74.84858093 3.24839638 74.91547546 0.25 74.875 C-0.93408447 74.86364014 -0.93408447 74.86364014 -2.14208984 74.85205078 C-8.37683275 74.6763339 -13.45552302 73.66698349 -18.875 70.4375 C-19.57753906 70.025 -20.28007812 69.6125 -21.00390625 69.1875 C-28.93657038 63.88902225 -34.38266467 55.59162054 -36.875 46.4375 C-37.28608093 43.46445017 -37.35297546 40.56089638 -37.3125 37.5625 C-37.30492676 36.77311035 -37.29735352 35.9837207 -37.28955078 35.17041016 C-37.1138339 28.93566725 -36.10448349 23.85697698 -32.875 18.4375 C-32.4625 17.73496094 -32.05 17.03242188 -31.625 16.30859375 C-24.40712946 5.50229325 -12.75671204 -0.17220331 0 0 Z " fill="#F4969A" transform="translate(36.875,-0.4375)"/>
<path d="M0 0 C0.78938965 0.00757324 1.5787793 0.01514648 2.39208984 0.02294922 C8.62683275 0.1986661 13.70552302 1.20801651 19.125 4.4375 C19.82753906 4.85 20.53007813 5.2625 21.25390625 5.6875 C28.41754256 10.4723197 34.12559235 17.99555659 36.125 26.4375 C33.48965172 26.7180694 30.85685203 26.96887088 28.21484375 27.1796875 C26.26462281 27.34241137 24.31716163 27.55011474 22.37890625 27.8203125 C19.72630008 28.07063454 17.70569865 28.11350602 15.125 27.4375 C12.31784391 24.89862689 10.85089399 21.76918711 9.125 18.4375 C8.41817688 17.218735 7.70418777 16.00410731 6.984375 14.79296875 C1.125 4.86905127 1.125 4.86905127 1.125 2.4375 C0.465 2.4375 -0.195 2.4375 -0.875 2.4375 C-1.13998291 3.14326172 -1.40496582 3.84902344 -1.67797852 4.57617188 C-2.94135965 7.59612434 -4.42162969 10.36641836 -6.02734375 13.21875 C-6.63900391 14.30800781 -7.25066406 15.39726562 -7.88085938 16.51953125 C-8.51830078 17.64746094 -9.15574219 18.77539062 -9.8125 19.9375 C-10.44607422 21.06542969 -11.07964844 22.19335938 -11.73242188 23.35546875 C-14.3931705 28.0838233 -17.0650834 32.79581239 -19.875 37.4375 C-19.11574219 37.08816406 -18.35648438 36.73882812 -17.57421875 36.37890625 C-16.58035156 35.92386719 -15.58648438 35.46882813 -14.5625 35 C-13.57636719 34.54753906 -12.59023438 34.09507813 -11.57421875 33.62890625 C-8.875 32.4375 -8.875 32.4375 -5.875 31.4375 C-4.41855243 29.34937542 -4.41855243 29.34937542 -3.1875 26.875 C-2.75050781 26.04871094 -2.31351563 25.22242187 -1.86328125 24.37109375 C-1.53714844 23.73300781 -1.21101563 23.09492188 -0.875 22.4375 C-0.215 22.4375 0.445 22.4375 1.125 22.4375 C2.115 25.0775 3.105 27.7175 4.125 30.4375 C2.33374151 31.18847435 0.54196564 31.93821462 -1.25 32.6875 C-2.34570312 33.14769531 -3.44140625 33.60789063 -4.5703125 34.08203125 C-6.57296878 34.90345173 -8.58642398 35.69997694 -10.6171875 36.44921875 C-18.24936379 39.26670439 -25.52306336 43.30032391 -29.875 50.4375 C-30.67722151 54.127248 -30.67722151 54.127248 -30.875 57.4375 C-35.36434914 53.34457004 -36.94822364 47.9972788 -37.30859375 42.0703125 C-37.33196112 40.56788948 -37.33278187 39.06496784 -37.3125 37.5625 C-37.30492676 36.77311035 -37.29735352 35.9837207 -37.28955078 35.17041016 C-37.1138339 28.93566725 -36.10448349 23.85697698 -32.875 18.4375 C-32.4625 17.73496094 -32.05 17.03242188 -31.625 16.30859375 C-24.40712946 5.50229325 -12.75671204 -0.17220331 0 0 Z " fill="#FEFCFD" transform="translate(36.875,-0.4375)"/>
<path d="M0 0 C-2.66998453 1.77998969 -5.10260979 2.84717417 -8.09008789 3.95288086 C-17.99168038 7.64070012 -28.3713231 12.55633097 -34 22 C-35.2483751 26.61368688 -35.2483751 26.61368688 -34 31 C-33.814375 29.845 -33.62875 28.69 -33.4375 27.5 C-31.45635318 19.65853777 -25.01994767 14.71100065 -18.796875 10.03125 C-17 9 -17 9 -14 9 C-12.6496582 10.71240234 -12.6496582 10.71240234 -11.30078125 13.0859375 C-10.81416016 13.93414062 -10.32753906 14.78234375 -9.82617188 15.65625 C-9.32666016 16.5534375 -8.82714844 17.450625 -8.3125 18.375 C-7.80138672 19.26445313 -7.29027344 20.15390625 -6.76367188 21.0703125 C-3 27.70321888 -3 27.70321888 -3 30 C-0.03 30 2.94 30 6 30 C3.93936475 33.88119649 1.92714257 36.13957858 -1.6875 38.625 C-2.49574219 39.19476563 -3.30398437 39.76453125 -4.13671875 40.3515625 C-10.63745801 44.09414363 -16.38934524 45.53854912 -23.875 45.4375 C-24.66438965 45.42992676 -25.4537793 45.42235352 -26.26708984 45.41455078 C-35.91338026 45.14268454 -44.02668155 41.82766167 -51 35 C-51.495 33.515 -51.495 33.515 -52 32 C-51.34 32 -50.68 32 -50 32 C-50 32.66 -50 33.32 -50 34 C-48.68 34 -47.36 34 -46 34 C-46.495 33.46375 -46.99 32.9275 -47.5 32.375 C-49.5210074 29.17507162 -49.64822853 27.74532039 -49 24 C-44.77032989 15.71259758 -36.1130422 9.28735313 -27.5 6.125 C-26.345 5.75375 -25.19 5.3825 -24 5 C-23.01 4.34 -22.02 3.68 -21 3 C-18.66015625 2.40234375 -18.66015625 2.40234375 -16.0625 1.9375 C-12.46904092 1.286751 -12.46904092 1.286751 -8.91796875 0.4453125 C-5.95487437 -0.24265646 -3.02678993 -0.0582075 0 0 Z " fill="#FEFAFA" transform="translate(61,29)"/>
<path d="M0 0 C0.66 0 1.32 0 2 0 C2.43082886 0.77863403 2.43082886 0.77863403 2.87036133 1.57299805 C4.1834974 3.94500387 5.49798679 6.31625711 6.8125 8.6875 C7.26431641 9.50412109 7.71613281 10.32074219 8.18164062 11.16210938 C10.01297371 14.46385589 11.84148973 17.74305722 13.82421875 20.95703125 C15 23 15 23 15 25 C13.40012764 25.27615058 11.794667 25.52007625 10.1875 25.75 C9.29417969 25.88921875 8.40085937 26.0284375 7.48046875 26.171875 C5 26 5 26 3.17578125 24.140625 C2 22 2 22 2 20 C1.34 20 0.68 20 0 20 C-0.268125 20.721875 -0.53625 21.44375 -0.8125 22.1875 C-1.204375 23.115625 -1.59625 24.04375 -2 25 C-2.33 25.845625 -2.66 26.69125 -3 27.5625 C-6.15051994 31.40219617 -10.40920751 32.40229258 -15 34 C-16.66846606 34.66215046 -18.33538993 35.32821466 -20 36 C-15.89745149 27.55625058 -11.47590696 19.36013695 -6.75 11.25 C-6.12609375 10.15945313 -5.5021875 9.06890625 -4.859375 7.9453125 C-4.26125 6.91664062 -3.663125 5.88796875 -3.046875 4.828125 C-2.50901367 3.8990332 -1.97115234 2.96994141 -1.41699219 2.01269531 C-0.94938477 1.34850586 -0.48177734 0.68431641 0 0 Z " fill="#C12434" transform="translate(36,2)"/>
<path d="M0 0 C0.76595745 18.34042553 0.76595745 18.34042553 -4 27 C-4.66 27 -5.32 27 -6 27 C-8.00695291 23.54565686 -10.00436779 20.0858937 -12 16.625 C-12.57234375 15.64015625 -13.1446875 14.6553125 -13.734375 13.640625 C-14.27578125 12.69960938 -14.8171875 11.75859375 -15.375 10.7890625 C-15.87773438 9.91975098 -16.38046875 9.05043945 -16.8984375 8.15478516 C-18 6 -18 6 -18 4 C-15.94037148 3.32451422 -13.87715678 2.65995688 -11.8125 2 C-10.66394531 1.62875 -9.51539062 1.2575 -8.33203125 0.875 C-5.35679188 0.09369447 -3.04716104 -0.18363306 0 0 Z " fill="#FEFCFC" transform="translate(74,29)"/>
<path d="M0 0 C2.03736586 3.42795597 4.05196199 6.86875165 6.0625 10.3125 C6.64322266 11.28896484 7.22394531 12.26542969 7.82226562 13.27148438 C8.36689453 14.20927734 8.91152344 15.14707031 9.47265625 16.11328125 C9.98062744 16.97735596 10.48859863 17.84143066 11.01196289 18.73168945 C12 21 12 21 11 24 C7.7 24 4.4 24 1 24 C-0.70272207 21.09130782 -2.38722645 18.17444004 -4.0625 15.25 C-4.79049805 14.0125 -4.79049805 14.0125 -5.53320312 12.75 C-5.98759766 11.95078125 -6.44199219 11.1515625 -6.91015625 10.328125 C-7.33433838 9.5949707 -7.75852051 8.86181641 -8.19555664 8.10644531 C-9.15683228 5.58933265 -9.01566167 4.46798787 -8 2 C-5.06004981 -0.02755186 -3.72295997 0 0 0 Z " fill="#C12535" transform="translate(57,35)"/>
<path d="M0 0 C-1.29045696 0.58600461 -2.58246888 1.16858462 -3.875 1.75 C-4.7 2.12253906 -5.525 2.49507812 -6.375 2.87890625 C-9 4 -9 4 -11.4375 4.83984375 C-20.21584542 7.89256964 -28.7358385 13.51307663 -33 22 C-33.58393336 26.67146691 -32.69516915 29.18184371 -30 33 C-31.65 32.67 -33.3 32.34 -35 32 C-35 31.34 -35 30.68 -35 30 C-35.639375 29.855625 -36.27875 29.71125 -36.9375 29.5625 C-39 29 -39 29 -40 28 C-40.76382495 24.03331818 -40.79304933 20.48017769 -38.859375 16.87109375 C-31.38766344 7.60399519 -12.43252296 -3.9201649 0 0 Z " fill="#EE2E35" transform="translate(46,31)"/>
<path d="M0 0 C0.66 0 1.32 0 2 0 C2.99 2.64 3.98 5.28 5 8 C-1.59121191 10.76332596 -8.18875111 13.49892752 -14.84375 16.10546875 C-16.95112255 16.97972294 -18.97303414 17.95426989 -21 19 C-21 18.01 -21 17.02 -21 16 C-18.8967433 15.01888025 -16.79236311 14.04016866 -14.6875 13.0625 C-13.51574219 12.51722656 -12.34398437 11.97195312 -11.13671875 11.41015625 C-8 10 -8 10 -5 9 C-3.54355243 6.91187542 -3.54355243 6.91187542 -2.3125 4.4375 C-1.87550781 3.61121094 -1.43851563 2.78492188 -0.98828125 1.93359375 C-0.66214844 1.29550781 -0.33601563 0.65742188 0 0 Z " fill="#FBEDEF" transform="translate(36,22)"/>
<path d="M0 0 C0.87205078 0.32291016 0.87205078 0.32291016 1.76171875 0.65234375 C1.09785156 1.16023438 0.43398438 1.668125 -0.25 2.19140625 C-8.52037674 8.63867805 -13.64798605 12.97125661 -15.23828125 23.65234375 C-16.73046875 22.3515625 -16.73046875 22.3515625 -18.23828125 20.65234375 C-18.4254252 15.880173 -17.15557056 13.14922595 -14.17578125 9.58984375 C-4.42109584 -0.68669726 -4.42109584 -0.68669726 0 0 Z " fill="#EF4248" transform="translate(43.23828125,37.34765625)"/>
<path d="M0 0 C4.29 0 8.58 0 13 0 C13 0.33 13 0.66 13 1 C10.5636811 1.67126129 8.12611117 2.33716354 5.6875 3 C4.99720703 3.19078125 4.30691406 3.3815625 3.59570312 3.578125 C0.64212051 4.37716184 -1.92559219 5 -5 5 C-5 5.66 -5 6.32 -5 7 C-6.11375 7.45375 -7.2275 7.9075 -8.375 8.375 C-11.96199008 9.72465986 -11.96199008 9.72465986 -14 12 C-14 11.34 -14 10.68 -14 10 C-15.32 9.34 -16.64 8.68 -18 8 C-15.56495491 6.9936345 -13.12729136 5.99473587 -10.6875 5 C-9.65206055 4.57074219 -9.65206055 4.57074219 -8.59570312 4.1328125 C-5.58454326 2.91089256 -3.28113016 2 0 2 C0 1.34 0 0.68 0 0 Z " fill="#F1A8AC" transform="translate(61,28)"/>
<path d="M0 0 C0.52078125 0.38929687 1.0415625 0.77859375 1.578125 1.1796875 C0.85367187 1.43363281 0.12921875 1.68757813 -0.6171875 1.94921875 C-5.72375095 3.76715534 -10.65076875 5.60071115 -15.421875 8.1796875 C-15.421875 7.1896875 -15.421875 6.1996875 -15.421875 5.1796875 C-13.3482191 4.11888665 -11.26252414 3.08159226 -9.171875 2.0546875 C-8.01171875 1.47460938 -6.8515625 0.89453125 -5.65625 0.296875 C-2.421875 -0.8203125 -2.421875 -0.8203125 0 0 Z " fill="#EDA1A6" transform="translate(30.421875,32.8203125)"/>
<path d="M0 0 C-4.93387858 2.25861997 -9.80355921 4.40109514 -15 6 C-14.5625 3.625 -14.5625 3.625 -13 1 C-8.6024048 -0.79001918 -4.56183658 -1.43729098 0 0 Z " fill="#EF4249" transform="translate(46,31)"/>
<path d="M0 0 C-4.455 2.97 -4.455 2.97 -9 6 C-9.66 5.34 -10.32 4.68 -11 4 C-9.92892883 3.13050683 -8.84254056 2.27985795 -7.75 1.4375 C-7.14671875 0.96183594 -6.5434375 0.48617187 -5.921875 -0.00390625 C-4 -1 -4 -1 0 0 Z " fill="#F15E63" transform="translate(45,38)"/>
<path d="M0 0 C4.29 0 8.58 0 13 0 C13 0.33 13 0.66 13 1 C11.39796533 1.36368892 9.79325797 1.71561952 8.1875 2.0625 C7.29417969 2.25972656 6.40085937 2.45695312 5.48046875 2.66015625 C3 3 3 3 0 2 C0 1.34 0 0.68 0 0 Z " fill="#F9B4B7" transform="translate(61,28)"/>
<path d="M0 0 C0 2.97 0 5.94 0 9 C-3 6 -3 6 -3.1875 3.3125 C-3.125625 2.549375 -3.06375 1.78625 -3 1 C-1 0 -1 0 0 0 Z " fill="#F1585E" transform="translate(28,52)"/>
<path d="M0 0 C-2.97 1.32 -5.94 2.64 -9 4 C-9.66 3.34 -10.32 2.68 -11 2 C-4.5 -1.125 -4.5 -1.125 0 0 Z " fill="#F58A8F" transform="translate(54,34)"/>
</svg>
